PathFileType	4	(X/Y/Z)	output.trc
DataRate	CameraRate	NumFrames	NumMarkers	Units	OrigDataRate	OrigDataStartFrame	OrigNumFrames
100	100	13	23	m	100	4639	6185
Frame#	Time	C7			T8			EL			EM			US			RS			AA			Fore_Clus_1			Fore_Clus_2			Fore_Clus_3			Fore_Clus_4			Hum_Clus_1			Hum_Clus_2			Hum_Clus_3			Hum_Clus_4			Thor_Clus_1			Thor_Clus_2			Thor_Clus_3			Thor_Clus_4			IJ			PX			GH			Thor_Clus_5		
		X1	Y1	Z1	X2	Y2	Z2	X3	Y3	Z3	X4	Y4	Z4	X5	Y5	Z5	X6	Y6	Z6	X7	Y7	Z7	X8	Y8	Z8	X9	Y9	Z9	X10	Y10	Z10	X11	Y11	Z11	X12	Y12	Z12	X13	Y13	Z13	X14	Y14	Z14	X15	Y15	Z15	X16	Y16	Z16	X17	Y17	Z17	X18	Y18	Z18	X19	Y19	Z19	X20	Y20	Z20	X21	Y21	Z21	X22	Y22	Z22	X23	Y23	Z23
4638	46.380000	-0.057653	1.475593	-0.113395	-0.076732	1.241453	-0.150128	-0.240183	1.065924	0.035284	-0.196879	1.060568	-0.013367	-0.101395	1.033715	0.240558	-0.082247	1.084273	0.238195	-0.202449	1.381936	0.028256	-0.165829	1.041551	0.198346	-0.136637	1.042974	0.244744	-0.133845	1.070771	0.242112	-0.161321	1.086073	0.193476	-0.237259	1.166316	0.071956	-0.265909	1.176825	0.020217	-0.271438	1.240116	0.023698	-0.236646	1.240536	0.071222	0.066113	1.376669	0.016384	0.026723	1.328666	0.073523	0.025753	1.374389	0.038450	0.082381	1.333303	0.040974	0.004231	1.386366	-0.021637	0.036012	1.174852	0.032087	-0.173137	1.365036	0.002045	0.018572	1.348396	0.062150
4639	46.390000	-0.057569	1.475642	-0.113260	-0.076736	1.241519	-0.150060	-0.240043	1.066058	0.035870	-0.196746	1.060632	-0.012779	-0.101066	1.034114	0.241222	-0.082153	1.084764	0.238937	-0.202311	1.381980	0.028442	-0.165526	1.041657	0.198919	-0.136541	1.043213	0.245369	-0.133834	1.071041	0.242808	-0.161266	1.086218	0.194074	-0.236992	1.166347	0.072350	-0.265688	1.176844	0.020579	-0.271225	1.240126	0.024030	-0.236453	1.240577	0.071532	0.066212	1.376584	0.016462	0.026914	1.328641	0.073513	0.026038	1.374449	0.038525	0.082552	1.333243	0.041010	0.004341	1.386366	-0.021568	0.036093	1.174826	0.032069	-0.173015	1.365123	0.002179	0.018755	1.348359	0.062222
4640	46.400000	-0.057494	1.475687	-0.113117	-0.076724	1.241579	-0.149981	-0.239739	1.066080	0.036264	-0.196411	1.060639	-0.012356	-0.100703	1.034488	0.241799	-0.082071	1.085247	0.239608	-0.202162	1.382003	0.028647	-0.165164	1.041639	0.199373	-0.136469	1.043367	0.246068	-0.133758	1.071252	0.243294	-0.161237	1.086238	0.194563	-0.236636	1.166220	0.072549	-0.265324	1.176641	0.020695	-0.270921	1.239934	0.024145	-0.236201	1.240424	0.071666	0.066252	1.376471	0.016634	0.027086	1.328618	0.073610	0.026230	1.374408	0.038604	0.082718	1.333193	0.041070	0.004459	1.386371	-0.021492	0.036209	1.174808	0.032055	-0.172902	1.365161	0.002339	0.018944	1.348331	0.062295
4641	46.410000	-0.057423	1.475729	-0.112970	-0.076688	1.241634	-0.149898	-0.239276	1.065992	0.036471	-0.195885	1.060594	-0.012096	-0.100285	1.034816	0.242275	-0.081974	1.085695	0.240196	-0.202003	1.382005	0.028858	-0.164619	1.041474	0.199624	-0.135971	1.043434	0.246165	-0.133671	1.071310	0.243622	-0.161110	1.086112	0.194905	-0.236229	1.165898	0.072555	-0.264826	1.176255	0.020650	-0.270532	1.239558	0.024082	-0.235935	1.240119	0.071662	0.066224	1.376317	0.016858	0.027458	1.328499	0.073674	0.026413	1.374370	0.038682	0.082908	1.333158	0.041094	0.004586	1.386380	-0.021415	0.036361	1.174798	0.032043	-0.172799	1.365152	0.002528	0.019169	1.348314	0.062409
4642	46.420000	-0.057363	1.475763	-0.112822	-0.076629	1.241678	-0.149811	-0.238669	1.065811	0.036511	-0.195190	1.060507	-0.011989	-0.099795	1.035065	0.242626	-0.081828	1.086072	0.240669	-0.201837	1.381979	0.029075	-0.163989	1.041200	0.199705	-0.135490	1.043304	0.246390	-0.133534	1.071233	0.243877	-0.160882	1.085890	0.195156	-0.235746	1.165460	0.072434	-0.264177	1.175730	0.020449	-0.270114	1.238983	0.023904	-0.235640	1.239717	0.071594	0.066172	1.376173	0.017143	0.027663	1.328479	0.073755	0.026605	1.374348	0.038768	0.083101	1.333126	0.041143	0.004718	1.386392	-0.021338	0.036551	1.174796	0.032031	-0.172713	1.365105	0.002740	0.019378	1.348305	0.062502
4643	46.430000	-0.057302	1.475792	-0.112681	-0.076538	1.241715	-0.149732	-0.237950	1.065552	0.036407	-0.194367	1.060386	-0.012014	-0.099225	1.035233	0.242857	-0.081617	1.086370	0.241032	-0.201662	1.381930	0.029280	-0.163272	1.040793	0.199636	-0.134901	1.043058	0.246443	-0.133326	1.071065	0.244037	-0.160591	1.085495	0.195283	-0.235131	1.164931	0.072188	-0.263413	1.175148	0.020182	-0.269654	1.238399	0.023638	-0.235307	1.239227	0.071478	0.066581	1.376119	0.017140	0.027849	1.328484	0.073859	0.026803	1.374331	0.038851	0.083303	1.333131	0.041202	0.004858	1.386406	-0.021265	0.036775	1.174801	0.032015	-0.172637	1.365026	0.002973	0.019586	1.348297	0.062606
4644	46.440000	-0.057245	1.475814	-0.112550	-0.076420	1.241740	-0.149659	-0.237152	1.065243	0.036192	-0.193459	1.060246	-0.012147	-0.098576	1.035304	0.242958	-0.081322	1.086565	0.241266	-0.201481	1.381857	0.029474	-0.162365	1.040280	0.199507	-0.134170	1.042699	0.246383	-0.132952	1.070686	0.244012	-0.160185	1.085024	0.195331	-0.234457	1.164420	0.071926	-0.262686	1.174591	0.019841	-0.269202	1.237771	0.023415	-0.234943	1.238683	0.071307	0.065784	1.377119	0.016715	0.027967	1.328564	0.073948	0.026976	1.374319	0.038909	0.083496	1.333127	0.041233	0.005006	1.386422	-0.021201	0.037032	1.174812	0.031996	-0.172571	1.364926	0.003218	0.019809	1.348330	0.062702
4645	46.450000	-0.057185	1.475828	-0.112434	-0.076276	1.241756	-0.149596	-0.236319	1.064908	0.035901	-0.192516	1.060100	-0.012359	-0.097856	1.035277	0.242935	-0.080936	1.086654	0.241373	-0.201293	1.381766	0.029651	-0.161471	1.039819	0.199349	-0.133451	1.042259	0.246264	-0.132357	1.070214	0.243896	-0.159738	1.084560	0.195344	-0.233777	1.163925	0.071690	-0.261943	1.174057	0.019594	-0.268725	1.237205	0.023205	-0.234614	1.238185	0.071181	0.065208	1.377840	0.016439	0.028239	1.328543	0.074004	0.027127	1.374312	0.038945	0.083693	1.333149	0.041271	0.005161	1.386440	-0.021147	0.037316	1.174830	0.031972	-0.172509	1.364815	0.003469	0.020102	1.348189	0.062737
4646	46.460000	-0.057116	1.475836	-0.112337	-0.076107	1.241764	-0.149547	-0.235497	1.064575	0.035568	-0.191595	1.059960	-0.012621	-0.097081	1.035161	0.242803	-0.080463	1.086641	0.241364	-0.201097	1.381664	0.029805	-0.160543	1.039304	0.199086	-0.132685	1.041804	0.246125	-0.131802	1.069841	0.243812	-0.159113	1.084098	0.195263	-0.233152	1.163523	0.071497	-0.261291	1.173607	0.019379	-0.268314	1.236766	0.023052	-0.234261	1.237780	0.071065	0.065450	1.377784	0.016497	0.028490	1.328530	0.074025	0.027282	1.374308	0.038968	0.083898	1.333174	0.041261	0.005327	1.386458	-0.021107	0.037621	1.174851	0.031941	-0.172440	1.364703	0.003717	0.020325	1.348139	0.062754
4647	46.470000	-0.057043	1.475836	-0.112258	-0.075925	1.241760	-0.149503	-0.234725	1.064270	0.035227	-0.190742	1.059840	-0.012904	-0.096271	1.034958	0.242564	-0.079905	1.086521	0.241233	-0.200892	1.381557	0.029945	-0.159653	1.038818	0.198862	-0.131784	1.041358	0.245893	-0.131077	1.069398	0.243559	-0.158487	1.083619	0.195103	-0.232603	1.163175	0.071362	-0.260779	1.173281	0.019257	-0.267944	1.236419	0.022985	-0.233860	1.237429	0.070983	0.065537	1.377813	0.016461	0.028720	1.328525	0.074026	0.027466	1.374327	0.038997	0.084085	1.333197	0.041262	0.005500	1.386474	-0.021081	0.037940	1.174875	0.031909	-0.172359	1.364603	0.003951	0.020533	1.348139	0.062767
4648	46.480000	-0.056952	1.475831	-0.112202	-0.075732	1.241751	-0.149469	-0.234048	1.064015	0.034909	-0.190007	1.059748	-0.013184	-0.095454	1.034691	0.242246	-0.079285	1.086318	0.241008	-0.200676	1.381458	0.030065	-0.158930	1.038476	0.198681	-0.130945	1.040927	0.245649	-0.130360	1.069006	0.243369	-0.157879	1.083258	0.194977	-0.232179	1.163006	0.071313	-0.260374	1.173096	0.019220	-0.267602	1.236210	0.023018	-0.233538	1.237218	0.071006	0.066431	1.377375	0.016543	0.028971	1.328533	0.074010	0.027639	1.374332	0.038985	0.084299	1.333234	0.041219	0.005686	1.386489	-0.021070	0.038265	1.174900	0.031873	-0.172250	1.364520	0.004164	0.020743	1.348141	0.062750
4649	46.490000	-0.056848	1.475820	-0.112166	-0.075542	1.241734	-0.149436	-0.233499	1.063830	0.034640	-0.189428	1.059691	-0.013437	-0.094661	1.034368	0.241863	-0.078622	1.086037	0.240696	-0.200449	1.381373	0.030177	-0.158274	1.038194	0.198490	-0.130209	1.040591	0.245448	-0.129573	1.068658	0.243214	-0.157294	1.083001	0.194903	-0.231921	1.162937	0.071352	-0.260118	1.173043	0.019272	-0.267331	1.236165	0.023126	-0.233272	1.237139	0.071095	0.068170	1.376510	0.016664	0.029297	1.328478	0.073931	0.027845	1.374356	0.038940	0.084510	1.333283	0.041160	0.005883	1.386502	-0.021074	0.038588	1.174925	0.031838	-0.172105	1.364463	0.004343	0.020963	1.348157	0.062681
4650	46.500000	-0.056727	1.475805	-0.112147	-0.075362	1.241711	-0.149399	-0.233109	1.063728	0.034440	-0.189038	1.059673	-0.013644	-0.093925	1.034010	0.241438	-0.077944	1.085699	0.240319	-0.200207	1.381313	0.030286	-0.157727	1.037985	0.198368	-0.129427	1.040302	0.245159	-0.128811	1.068371	0.243051	-0.156635	1.082814	0.194848	-0.231756	1.162972	0.071409	-0.260011	1.173151	0.019399	-0.267144	1.236262	0.023288	-0.233050	1.237198	0.071241	0.068174	1.376713	0.016544	0.029609	1.328463	0.073856	0.028084	1.374390	0.038878	0.084760	1.333325	0.041065	0.006091	1.386512	-0.021092	0.038902	1.174947	0.031807	-0.171912	1.364436	0.004481	0.021230	1.348213	0.062594
